# xmcd
# Track frame offsets:
# 150
# 16059
# 36016
# 54098
# 68434
# 83669
# 102053
# 120437
# 134320
# 148740
# 164277
# 183111
# 199694
# 216353
# 237589
# 255524
# 274133
#
# Disc length: 3884 seconds
# Revision: 0
# Processed by: cddbd v1.5.1PL0 Copyright (c) Steve Scherf et al.
# Submitted via: VisiTrax 2.9.10.228 - For more info visit www.synapsa.com
#
DISCID=dd0f2a11
DTITLE=Chesney, Kenny - Country Karaoke Classics  CKC009
DYEAR=1900
DGENRE=Karaoke
TTITLE0=No Shoes, No Shirt, No Problems
TTITLE1=She Thinks My Tractor's Sexy
TTITLE2=Big Star
TTITLE3=All I Need To Know
TTITLE4=She's Got It All
TTITLE5=That's Why I'm Here
TTITLE6=I Lost It
TTITLE7=Don't Happen Twice
TTITLE8=How Forever Feels
TTITLE9=Good Stuff, The
TTITLE10=Dreams
TTITLE11=Me And You
TTITLE12=Tin Man, The
TTITLE13=Lot Of Things Different, A
TTITLE14=Young
TTITLE15=There Goes My Life
TTITLE16=You Had Me From Hello
EXTD=
EXTT0=
EXTT1=
EXTT2=
EXTT3=
EXTT4=
EXTT5=
EXTT6=
EXTT7=
EXTT8=
EXTT9=
EXTT10=
EXTT11=
EXTT12=
EXTT13=
EXTT14=
EXTT15=
EXTT16=
PLAYORDER=
